<?xml version="1.0" standalone="no"?>
<!DOCTYPE svg PUBLIC "-//W3C//DTD SVG 20010904//EN"
 "http://www.w3.org/TR/2001/REC-SVG-20010904/DTD/svg10.dtd">
<svg version="1.0" xmlns="http://www.w3.org/2000/svg"
 width="300.000000pt" height="228.000000pt" viewBox="0 0 300.000000 228.000000"
 preserveAspectRatio="xMidYMid meet">
<metadata>
Created by potrace 1.10, written by Peter Selinger 2001-2011
</metadata>
<g transform="translate(0.000000,228.000000) scale(0.100000,-0.100000)"
fill="#b51a00" stroke="none">
<path d="M1278 1673 l-218 -126 0 -256 0 -257 213 -121 c116 -67 223 -124 237
-127 17 -4 33 1 50 15 l25 20 -32 -15 c-18 -9 -33 -16 -35 -16 -2 0 -2 104 0
230 l3 230 32 -16 c18 -9 35 -21 38 -26 3 -5 9 -9 13 -8 4 0 52 -25 107 -57
56 -32 125 -71 155 -88 30 -16 54 -33 54 -36 0 -3 -16 -13 -36 -23 -20 -9 -34
-20 -30 -23 3 -3 11 -1 18 4 7 5 20 13 29 16 15 5 17 -16 18 -224 1 -126 -1
-229 -5 -229 -4 0 -22 9 -40 21 -23 14 -32 16 -29 7 3 -8 18 -19 32 -24 27 -9
26 -10 -44 -52 -39 -23 -76 -42 -82 -42 -6 0 -11 -4 -11 -8 0 -4 -12 -13 -27
-20 -16 -6 -68 -36 -118 -66 -49 -30 -93 -51 -98 -47 -4 4 -6 106 -5 227 3
192 5 219 19 216 8 -1 52 -23 98 -50 45 -26 106 -60 134 -76 29 -15 55 -33 59
-40 6 -8 8 -8 8 1 0 6 -57 44 -127 84 -71 40 -140 81 -156 91 l-27 19 -220
-127 c-122 -69 -220 -128 -218 -129 2 -2 101 -59 220 -128 l218 -125 220 126
220 126 0 257 0 257 -207 119 c-115 65 -310 177 -435 248 l-226 129 71 39 c40
21 77 42 82 47 6 4 26 17 46 28 75 41 84 47 89 53 6 7 120 69 121 66 1 -1 2
-102 3 -224 1 -122 5 -225 9 -229 4 -4 7 102 7 236 0 231 1 242 18 228 16 -14
148 -92 217 -128 17 -9 63 -35 103 -59 l73 -44 -52 -33 c-28 -19 -53 -34 -56
-34 -3 0 -48 -26 -101 -57 -54 -32 -101 -60 -107 -62 -24 -9 -76 -44 -71 -48
4 -4 341 184 399 222 15 10 -13 30 -203 139 -121 69 -222 126 -223 125 -1 0
-100 -57 -219 -126z m-133 -197 c28 -18 68 -42 90 -53 47 -23 116 -62 130 -73
6 -4 36 -21 68 -38 l58 -29 -201 -117 c-111 -64 -205 -116 -208 -116 -4 0 -6
103 -4 230 1 126 6 230 10 230 4 0 30 -15 57 -34z m365 -441 c0 -203 -6 -256
-25 -226 -3 6 -43 31 -88 57 -136 77 -159 91 -221 128 -32 19 -63 37 -70 39
-6 2 -9 7 -6 10 9 9 240 137 249 137 4 0 16 9 26 20 10 11 24 20 30 20 7 0 18
7 25 15 7 9 15 13 18 11 2 -3 14 1 25 9 11 8 24 12 29 9 4 -3 8 -106 8 -229z
m-34 -712 c-2 -3 -49 21 -103 53 -54 32 -116 67 -138 79 -68 37 -115 67 -115
73 0 7 99 66 110 67 3 0 19 10 37 23 18 12 51 32 75 43 48 22 71 35 108 62
l25 19 3 -208 c1 -114 0 -209 -2 -211z"/>
<path d="M1814 954 c-18 -14 -18 -15 4 -4 12 6 22 13 22 15 0 8 -5 6 -26 -11z"/>
<path d="M1758 924 c-38 -20 -36 -28 2 -9 17 9 30 18 30 20 0 7 -1 6 -32 -11z"/>
<path d="M1658 866 c-78 -44 -88 -58 -13 -17 55 30 86 51 75 51 -3 0 -31 -15
-62 -34z"/>
</g>
</svg>
